<?xml version="1.0" encoding="UTF-8"?>
<!DOCTYPE svg PUBLIC "-//W3C//DTD SVG 1.1//EN" "http://www.w3.org/Graphics/SVG/1.1/DTD/svg11.dtd">
<!-- Creator: CorelDRAW X8 -->
<svg xmlns="http://www.w3.org/2000/svg" xml:space="preserve" width="4.92031in" height="0.690709in" version="1.1" style="shape-rendering:geometricPrecision; text-rendering:geometricPrecision; image-rendering:optimizeQuality; fill-rule:evenodd; clip-rule:evenodd"
viewBox="0 0 4920 691"
 xmlns:xlink="http://www.w3.org/1999/xlink">
 <defs>
  <style type="text/css">
   <![CDATA[
    .fil1 {fill:#959595}
    .fil0 {fill:#EEBD22}
    .fil2 {fill:#959595;fill-rule:nonzero}
   ]]>
  </style>
 </defs>
 <g id="Layer_x0020_1">
  <metadata id="CorelCorpID_0Corel-Layer"/>
  <g id="_2015474026912">
   <g>
    <g>
     <polygon class="fil0" points="384,678 0,678 0,10 384,10 384,126 142,126 142,272 367,272 367,389 142,389 142,560 384,560 "/>
     <path class="fil0" d="M665 423l0 256 -140 0 0 -669 194 0c91,0 158,17 201,50 44,32 66,83 66,150 0,40 -12,74 -33,105 -21,31 -52,55 -92,72 101,151 166,247 197,291l-157 0 -159 -255 -77 0zm0 -115l46 0c45,0 78,-7 99,-23 21,-16 32,-38 32,-71 0,-31 -11,-54 -32,-68 -21,-13 -55,-20 -101,-20l-42 0 0 182 -2 0z"/>
     <path class="fil0" d="M1749 343c0,111 -27,196 -82,256 -56,59 -134,89 -236,89 -102,0 -181,-30 -235,-89 -56,-60 -83,-145 -83,-256 0,-110 27,-196 83,-255 55,-60 133,-88 235,-88 102,0 182,30 236,89 53,60 82,144 82,254zm-488 0c0,75 14,131 42,169 29,38 71,57 128,57 114,0 170,-75 170,-226 0,-150 -56,-225 -168,-225 -57,0 -100,18 -128,56 -30,39 -44,95 -44,169z"/>
     <path class="fil0" d="M2282 494c0,61 -21,107 -65,143 -44,35 -104,52 -182,52 -71,0 -134,-12 -188,-39l0 -132c45,20 83,34 115,42 31,9 59,13 85,13 31,0 55,-6 71,-18 17,-12 25,-30 25,-53 0,-13 -4,-24 -11,-35 -7,-12 -19,-20 -33,-30 -14,-10 -42,-24 -86,-46 -42,-19 -71,-38 -93,-55 -19,-17 -36,-38 -48,-61 -13,-24 -18,-51 -18,-82 0,-60 20,-105 59,-139 40,-34 95,-51 166,-51 34,0 68,4 100,13 31,8 63,19 99,34l-46 110c-35,-14 -65,-25 -87,-31 -23,-6 -47,-8 -69,-8 -27,0 -46,5 -61,18 -14,13 -21,28 -21,48 0,13 3,23 9,33 5,10 15,18 27,27 12,8 42,24 89,47 62,29 105,59 129,89 21,30 34,67 34,111z"/>
     <path class="fil1" d="M2371 613c0,-26 8,-46 20,-58 14,-13 34,-20 60,-20 25,0 45,7 58,20 14,12 21,32 21,58 0,24 -7,42 -21,56 -14,15 -34,22 -58,22 -26,0 -46,-7 -60,-20 -12,-14 -20,-33 -20,-58z"/>
     <path class="fil1" d="M2953 119c-54,0 -95,20 -123,60 -30,39 -44,96 -44,167 0,149 55,224 167,224 47,0 103,-11 170,-35l0 119c-55,23 -116,34 -184,34 -98,0 -172,-30 -223,-88 -51,-60 -77,-143 -77,-254 0,-69 13,-130 39,-183 25,-52 61,-92 109,-120 47,-29 104,-42 166,-42 65,0 130,16 196,47l-46 115c-25,-11 -49,-23 -75,-31 -25,-9 -51,-13 -75,-13z"/>
     <path class="fil1" d="M3872 343c0,111 -27,196 -82,256 -56,59 -134,89 -236,89 -102,0 -181,-30 -235,-89 -55,-60 -82,-145 -82,-256 0,-110 27,-196 82,-255 55,-58 133,-88 237,-88 103,0 181,30 235,89 54,60 81,144 81,254zm-488 0c0,75 14,131 43,169 28,38 71,57 127,57 114,0 171,-75 171,-226 0,-150 -57,-225 -169,-225 -57,0 -100,18 -128,56 -30,39 -44,95 -44,169z"/>
     <path class="fil1" d="M4293 678l-160 -525 -4 0c5,107 8,177 8,213l0 311 -126 0 0 -667 193 0 157 511 3 0 168 -511 192 0 0 668 -131 0 0 -315c0,-16 0,-33 0,-51 0,-20 2,-71 5,-156l-3 0 -171 523 -131 0 0 -1z"/>
    </g>
   </g>
   <path class="fil2" d="M4920 87c0,44 -34,78 -79,78 -44,0 -79,-34 -79,-78 0,-43 35,-77 79,-77 45,0 79,34 79,77zm-138 0c0,34 25,62 60,62 34,0 59,-28 59,-61 0,-35 -25,-62 -60,-62 -34,0 -59,27 -59,61zm47 40l-18 0 0 -76c7,-2 17,-3 30,-3 15,0 21,3 27,6 4,3 7,9 7,17 0,8 -6,15 -16,18l0 0c8,3 12,9 14,19 3,12 4,17 6,19l-19 0c-3,-2 -4,-9 -6,-18 -2,-9 -6,-13 -16,-13l-9 0 0 31zm1 -43l8 0c10,0 18,-3 18,-11 0,-7 -5,-12 -16,-12 -5,0 -8,0 -10,1l0 22z"/>
  </g>
 </g>
</svg>
